<svg xmlns="http://www.w3.org/2000/svg" xmlns:xlink="http://www.w3.org/1999/xlink" viewBox="0 0 3071.56 720"><defs><linearGradient id="ciclic-negative_svg__b" x1="48.16" y1="540.01" x2="663.27" y2="184.87" gradientUnits="userSpaceOnUse"><stop offset="0" stop-color="#cde6e1"></stop><stop offset="1" stop-color="#fff"></stop></linearGradient><linearGradient id="ciclic-negative_svg__a" x1="1067.92" y1="360" x2="1703.56" y2="360" gradientUnits="userSpaceOnUse"><stop offset=".1" stop-color="#cde6e1"></stop><stop offset="1" stop-color="#fff"></stop></linearGradient><linearGradient id="ciclic-negative_svg__c" x1="2435.92" y1="360" x2="3071.56" y2="360" xlink:href="#ciclic-negative_svg__a"></linearGradient></defs><path d="M512.74 512.74S459 576 360 576c-119.29 0-216-96.7-216-216s96.71-216 216-216c99 0 152.74 63.27 152.74 63.27a72 72 0 1 0 101.82-101.83S520.88 0 360 0C161.18 0 0 161.18 0 360s161.18 360 360 360c160.88 0 254.56-105.44 254.56-105.44a72 72 0 0 0-101.82-101.82z" fill="url(&quot;#ciclic-negative_svg__b&quot;)" stroke="none" stroke-width="1px"></path><path d="M1580.65 512.74S1526.92 576 1427.92 576c-119.3 0-216-96.7-216-216s96.7-216 216-216c99 0 152.73 63.27 152.73 63.27a72 72 0 0 0 101.83-101.83S1588.8 0 1427.92 0c-198.83 0-360 161.18-360 360s161.17 360 360 360c160.88 0 254.56-105.44 254.56-105.44a72 72 0 0 0-101.83-101.82z" fill="url(&quot;#ciclic-negative_svg__a&quot;)" stroke="none" stroke-width="1px"></path><path d="M2948.65 512.74S2894.92 576 2795.92 576c-119.3 0-216-96.7-216-216s96.7-216 216-216c99 0 152.73 63.27 152.73 63.27a72 72 0 0 0 101.83-101.83S2956.8 0 2795.92 0c-198.83 0-360 161.18-360 360s161.17 360 360 360c160.88 0 254.56-105.44 254.56-105.44a72 72 0 0 0-101.83-101.82z" fill="url(&quot;#ciclic-negative_svg__c&quot;)" stroke="none" stroke-width="1px"></path><path fill="#ffffff" d="M1682.48 512.74a72 72 0 0 0-101.83 0S1526.92 576 1427.92 576c-119.3 0-216-96.71-216-216a72 72 0 0 0-144 0c0 198.82 161.17 360 360 360 160.88 0 254.56-105.44 254.56-105.44a72 72 0 0 0 0-101.82zm859.01-407.3a72 72 0 0 1 101.82 101.82A215.48 215.48 0 0 0 2579.92 360c0 119.29 96.7 216 216 216 99 0 152.73-63.26 152.73-63.26a72 72 0 0 1 101.83 101.82S2956.8 720 2795.92 720c-198.83 0-360-161.18-360-360a359 359 0 0 1 105.57-254.56zM1922.92 0a71.9 71.9 0 0 0-72 72v576a72 72 0 0 0 144 0V72a71.91 71.91 0 0 0-72-72zm-1071 306a71.9 71.9 0 0 0-72 72v198a72 72 0 0 0 144 0V378a71.91 71.91 0 0 0-72-72z" stroke="none" stroke-width="1px"></path><circle fill="#ffffff" cx="851.92" cy="153" r="81" transform="rotate(-1.71 852.922 153.141)" stroke="none" stroke-width="1px"></circle><path fill="#ffffff" d="M2219.92 306a71.9 71.9 0 0 0-72 72v198a72 72 0 0 0 144 0V378a71.91 71.91 0 0 0-72-72z" stroke="none" stroke-width="1px"></path><circle fill="#ffffff" cx="2219.92" cy="153" r="81" transform="rotate(-1.91 2216.501 152.76)" stroke="none" stroke-width="1px"></circle><path fill="#ffffff" d="M614.56 512.74a72 72 0 0 0-101.83 0S459 576 360 576c-97.09 0-152.73-63.26-152.73-63.26a72 72 0 0 0-101.83 101.82S199.12 720 360 720s254.56-105.44 254.56-105.44a72 72 0 0 0 0-101.82z" stroke="none" stroke-width="1px"></path></svg>
